<svg width="262" height="100" viewBox="0 0 262 100" fill="none" xmlns="http://www.w3.org/2000/svg">
    <path d="M245.207 9.56381L59.4457 3.92113L21.842 2.7713C12.4943 2.49449 5.38239 9.9045 6.04248 19.2309L6.63869 27.7481H6.6174L10.1521 77.8935C10.5992 84.324 16.2632 89.3918 22.715 89.1149L239.436 80.2783C245.888 80.0228 251.595 74.5292 252.127 68.0986L255.96 21.6157C256.492 15.1852 251.659 9.75545 245.207 9.56381Z" fill="#6EB118"/>
    <path d="M5.56624 26.7481L5.04498 19.3015C5.04497 19.3014 5.04496 19.3012 5.04495 19.3011C4.3433 9.38442 11.9325 1.47742 21.8716 1.77174L21.8725 1.77177L59.476 2.92159L59.4762 2.9216L245.237 8.56425C252.263 8.77297 257.536 14.6985 256.957 21.6979C256.957 21.698 256.957 21.6981 256.957 21.6982L253.124 68.1808L253.124 68.1811C252.55 75.1121 246.436 81.0013 239.477 81.2775L5.56624 26.7481ZM5.56624 26.7481H5.54443L5.61987 27.8185L9.15446 77.9628C9.15448 77.9631 9.15451 77.9636 9.15453 77.9638C9.63958 84.9338 15.7635 90.4129 22.7557 90.1141L22.7579 90.114L239.476 81.2775L5.56624 26.7481Z" stroke="url(#paint0_linear)" stroke-width="2"/>
    <path d="M5.56624 26.7481L5.04498 19.3015C5.04497 19.3014 5.04496 19.3012 5.04495 19.3011C4.3433 9.38442 11.9325 1.47742 21.8716 1.77174L21.8725 1.77177L59.476 2.92159L59.4762 2.9216L245.237 8.56425C252.263 8.77297 257.536 14.6985 256.957 21.6979C256.957 21.698 256.957 21.6981 256.957 21.6982L253.124 68.1808L253.124 68.1811C252.55 75.1121 246.436 81.0013 239.477 81.2775L5.56624 26.7481ZM5.56624 26.7481H5.54443L5.61987 27.8185L9.15446 77.9628C9.15448 77.9631 9.15451 77.9636 9.15453 77.9638C9.63958 84.9338 15.7635 90.4129 22.7557 90.1141L22.7579 90.114L239.476 81.2775L5.56624 26.7481Z" stroke="url(#paint1_linear)" stroke-width="2"/>
    <path d="M245.74 14.0551H13.8999V74.9747H245.74V14.0551Z" fill="white"/>
    <path d="M208.412 45.1643C205.9 45.1643 203.962 45.6328 202.578 46.5697C201.194 47.5066 200.513 48.848 200.513 50.5941C200.513 51.7013 200.726 52.5956 201.13 53.2557C201.556 53.9371 202.088 54.4268 202.77 54.7888C203.43 55.1508 204.175 55.385 204.984 55.4915C205.793 55.6192 206.603 55.6618 207.39 55.6618C208.434 55.6618 209.392 55.6192 210.308 55.5128C211.202 55.4063 212.096 55.2785 212.969 55.1082V45.505C212.394 45.4411 211.692 45.3559 210.84 45.2708C209.988 45.2069 209.179 45.1643 208.412 45.1643Z" fill="#6EB118"/>
    <path d="M142.553 37.0304C137.932 37.0304 134.164 40.7993 134.164 45.4199C134.164 50.0405 137.932 53.8094 142.553 53.8094C147.174 53.8094 150.943 50.0405 150.943 45.4199C150.964 40.7993 147.195 37.0304 142.553 37.0304Z" fill="#6EB118"/>
    <path d="M245.207 9.56381L59.4456 3.92113L21.842 2.7713C12.4943 2.49449 5.38239 9.9045 6.04248 19.2309L6.63869 27.7481H6.61739L10.1521 77.8935C10.5992 84.324 16.2632 89.3918 22.715 89.1149L239.436 80.2783C245.888 80.0228 251.595 74.5292 252.127 68.0986L255.96 21.6157C256.492 15.1852 251.659 9.75545 245.207 9.56381ZM47.8196 44.7826C47.8196 46.7203 46.2439 48.3173 44.2849 48.3173H27.4208V48.5302L27.144 48.7219C28.4641 51.8307 31.4878 53.8322 34.8734 53.8322C36.7898 53.8322 38.6636 53.1508 40.1754 51.9371L40.3883 51.7668C41.3252 50.9577 42.8796 51.0641 43.6887 52.001C44.4766 52.9166 44.4553 54.2581 43.6249 55.1311C41.2187 57.3243 38.0886 58.5167 34.8521 58.5167C28.0809 58.5167 22.3743 53.236 21.842 46.4861C21.8207 46.2093 21.7994 45.7834 21.7994 45.7834V45.6344C21.7994 45.5705 21.7994 45.5066 21.7994 45.4427C21.7994 38.2244 27.655 32.3688 34.8734 32.3688C41.3678 32.3688 46.9466 37.2236 47.8196 43.6754V44.7826V44.7826ZM76.3098 45.464C76.2885 52.6398 70.4116 58.4954 63.2358 58.4954C56.0174 58.4954 50.1618 52.6398 50.1618 45.4214C50.1618 38.2031 56.0174 32.3475 63.2358 32.3475C66.1104 32.3475 68.8572 33.2844 71.1569 35.0517L71.6253 35.4137V23.234C71.6253 21.9351 72.6687 20.8918 73.9676 20.8918C75.2664 20.8918 76.3098 21.9351 76.3098 23.234V45.464ZM101.031 47.5295C101.031 53.5554 96.1337 58.4528 90.1077 58.4528C84.0818 58.4528 79.1844 53.5554 79.1844 47.5295V34.8388C79.1844 33.4973 80.2916 32.39 81.6331 32.39C82.9746 32.39 84.0818 33.4973 84.0818 34.8388V47.5295C84.0818 50.8512 86.786 53.5554 90.1077 53.5554C93.4295 53.5554 96.1337 50.8512 96.1337 47.5295V34.8388C96.1337 33.4973 97.2409 32.39 98.5824 32.39C99.9239 32.39 101.031 33.4973 101.031 34.8388V47.5295V47.5295ZM117.086 53.8109C119.599 53.8109 121.962 52.7037 123.559 50.766C124.006 50.2337 124.666 49.9143 125.369 49.9143C125.901 49.9143 126.434 50.1059 126.86 50.4466C127.349 50.8512 127.648 51.4048 127.69 52.0223C127.754 52.6398 127.562 53.2573 127.158 53.7258C124.666 56.7494 120.983 58.4741 117.065 58.4741C109.846 58.4741 103.991 52.6185 103.991 45.4002C103.991 38.1818 109.846 32.3262 117.065 32.3262C120.983 32.3262 124.645 34.0509 127.158 37.0745C127.562 37.5643 127.754 38.1605 127.69 38.778C127.626 39.3955 127.328 39.9704 126.86 40.3537C126.434 40.6944 125.901 40.886 125.369 40.886C124.666 40.886 124.006 40.5666 123.559 40.0343C121.962 38.0966 119.599 36.9894 117.086 36.9894C112.466 36.9894 108.697 40.7582 108.697 45.3789C108.697 50.0421 112.444 53.8109 117.086 53.8109ZM155.648 56.3874C155.648 57.6863 154.605 58.7297 153.306 58.7297C152.007 58.7297 150.964 57.6863 150.964 56.3874V55.4292L150.495 55.7912C148.195 57.5585 145.449 58.4954 142.574 58.4954C135.356 58.4954 129.5 52.6398 129.5 45.4214C129.5 38.2031 135.356 32.3475 142.574 32.3475C149.792 32.3475 155.648 38.2031 155.648 45.4427V56.3874V56.3874ZM181.391 50.2976C180.795 52.0649 179.901 53.5554 178.751 54.7691C177.601 55.9828 176.175 56.9197 174.471 57.5798C172.789 58.2399 170.851 58.5593 168.658 58.5593C167.849 58.5593 166.976 58.4954 166.039 58.3677C165.102 58.2399 164.25 58.027 163.484 57.7715V69.8234C163.292 69.866 162.994 69.8873 162.632 69.9085C162.27 69.9298 161.993 69.9298 161.823 69.9298C161.631 69.9298 161.355 69.9298 160.993 69.9085C160.631 69.8873 160.354 69.866 160.162 69.8234V32.3475C160.354 32.3049 160.609 32.2836 160.907 32.2623C161.205 32.241 161.461 32.241 161.653 32.241C161.844 32.241 162.1 32.241 162.398 32.2623C162.696 32.2836 162.952 32.3049 163.143 32.3475L163.441 35.8608C164.144 34.7962 165.166 33.838 166.486 33.0075C167.806 32.1771 169.531 31.7513 171.639 31.7513C173.215 31.7513 174.663 31.9855 175.962 32.4752C177.261 32.965 178.389 33.7315 179.305 34.7536C180.22 35.7969 180.944 37.0958 181.455 38.6715C181.966 40.2472 182.243 42.1423 182.243 44.3568C182.307 46.5713 182.009 48.5515 181.391 50.2976ZM193.571 58.3251C192.975 58.389 192.443 58.4315 191.931 58.4315C191.229 58.4315 190.526 58.3464 189.823 58.1973C189.121 58.0483 188.482 57.7715 187.95 57.3456C187.396 56.9197 186.949 56.3661 186.608 55.6421C186.268 54.9182 186.097 53.9813 186.097 52.8102V21.0408C186.289 20.9982 186.566 20.9769 186.928 20.9556C187.29 20.9343 187.545 20.9343 187.758 20.9343C187.928 20.9343 188.184 20.9343 188.567 20.9556C188.929 20.9769 189.227 20.9982 189.419 21.0408V52.0436C189.419 52.9166 189.525 53.598 189.717 54.0877C189.909 54.5775 190.164 54.9182 190.462 55.1524C190.76 55.3653 191.101 55.5144 191.463 55.557C191.825 55.5996 192.166 55.6421 192.464 55.6421C192.826 55.6421 193.209 55.6209 193.614 55.557C194.018 55.5144 194.359 55.4505 194.614 55.3866C194.785 55.7912 194.891 56.2171 194.976 56.6855C195.04 57.154 195.083 57.5798 195.125 57.9844C194.678 58.1334 194.146 58.2612 193.571 58.3251ZM216.312 57.5159C215.141 57.7502 213.714 57.9844 212.032 58.2186C210.35 58.4528 208.774 58.5806 207.263 58.5806C204.154 58.5806 201.684 57.9631 199.895 56.7281C198.106 55.4931 197.212 53.4702 197.212 50.7021C197.212 49.3607 197.468 48.1683 198 47.1036C198.511 46.0389 199.235 45.1659 200.151 44.442C201.066 43.718 202.173 43.1857 203.472 42.8024C204.771 42.4404 206.177 42.2488 207.71 42.2488C208.923 42.2488 209.945 42.2914 210.818 42.3765C211.692 42.4617 212.415 42.5256 212.969 42.6107V41.0563C212.969 38.8419 212.458 37.2236 211.415 36.2015C210.371 35.1794 208.838 34.6684 206.794 34.6684C205.453 34.6684 204.239 34.7536 203.132 34.9452C202.024 35.1369 201.045 35.3498 200.172 35.6266C200.002 35.3285 199.853 34.8813 199.746 34.3277C199.618 33.7528 199.576 33.2205 199.576 32.7094C200.449 32.4326 201.513 32.2197 202.791 32.0281C204.069 31.8364 205.367 31.7513 206.709 31.7513C209.967 31.7513 212.373 32.4539 213.949 33.8806C215.524 35.3072 216.312 37.543 216.312 40.5879V57.5159V57.5159ZM230.429 65.5647C229.833 67.396 228.982 68.6948 227.874 69.4401C226.767 70.1854 225.468 70.5473 223.956 70.5473C223.254 70.5473 222.551 70.4835 221.827 70.3557C221.103 70.2279 220.507 70.0789 220.038 69.9511C220.038 68.9078 220.294 67.9709 220.784 67.1404C221.06 67.2469 221.444 67.3534 221.997 67.4598C222.53 67.5663 223.126 67.6302 223.807 67.6302C224.787 67.6302 225.553 67.396 226.15 66.9275C226.746 66.4591 227.257 65.586 227.683 64.3084L229.748 58.0696H228.79C228.492 58.0696 228.151 58.0696 227.768 58.0483C227.385 58.027 227.086 58.0057 226.895 57.9631L217.654 32.3475C217.845 32.3049 218.143 32.2836 218.505 32.2623C218.867 32.241 219.229 32.241 219.57 32.241C219.847 32.241 220.166 32.241 220.571 32.2623C220.975 32.2836 221.273 32.3049 221.465 32.3475L229.961 57.2604L238.308 32.3475C238.5 32.3049 238.776 32.2836 239.117 32.2623C239.458 32.241 239.756 32.241 240.011 32.241C240.288 32.241 240.586 32.241 240.906 32.2623C241.246 32.2836 241.502 32.3049 241.715 32.3475L230.429 65.5647Z" fill="#6EB118"/>
    <path d="M63.2362 37.0304C58.6156 37.0304 54.8467 40.7993 54.8467 45.4199C54.8467 50.0405 58.6156 53.8094 63.2362 53.8094C67.8568 53.8094 71.6257 50.0405 71.6257 45.4199C71.6257 40.7993 67.8568 37.0304 63.2362 37.0304Z" fill="#6EB118"/>
    <path d="M171.448 34.7095C170.638 34.7095 169.765 34.8372 168.828 35.114C167.892 35.3909 167.019 35.838 166.231 36.4981C165.443 37.1582 164.783 38.0099 164.272 39.0533C163.761 40.1179 163.484 41.4381 163.484 43.0564V54.7037C164.25 55.0018 165.038 55.236 165.869 55.3851C166.699 55.5341 167.785 55.6193 169.169 55.6193C170.468 55.6193 171.724 55.4064 172.895 55.0018C174.067 54.576 175.089 53.9159 175.962 53.0216C176.835 52.1273 177.516 50.9774 178.027 49.5721C178.538 48.188 178.772 46.5059 178.772 44.5682C178.772 41.4807 178.197 39.0746 177.048 37.3285C175.898 35.5825 174.024 34.7095 171.448 34.7095Z" fill="#6EB118"/>
    <path d="M34.8946 37.0304C31.1045 37.0304 27.7827 39.5856 26.8032 43.248L26.6968 43.61H43.0925L42.986 43.248C42.0065 39.5856 38.6635 37.0304 34.8946 37.0304Z" fill="#6EB118"/>
</svg>    