<svg width="319" height="227" viewBox="0 0 319 227" fill="none" xmlns="http://www.w3.org/2000/svg">
<g filter="url(#filter0_d)">
<path d="M4.55858 12.8622C4.25664 5.90957 9.91302 0.158925 16.8697 0.3459L302.761 8.02982C309.48 8.21042 314.741 13.8746 314.425 20.5891L306.012 199.528C305.717 205.797 300.642 210.78 294.368 210.96L25.3298 218.662C18.7742 218.849 13.2822 213.739 12.9977 207.187L4.55858 12.8622Z" fill="#6EB118"/>
<path d="M16.8563 0.845719L302.747 8.52964C309.187 8.70271 314.228 14.1309 313.926 20.5656L305.512 199.505C305.23 205.512 300.366 210.288 294.354 210.46L25.3155 218.162C19.0331 218.342 13.7699 213.445 13.4972 207.165L5.05811 12.8405C4.76875 6.17757 10.1894 0.666535 16.8563 0.845719Z" stroke="url(#paint0_linear)"/>
</g>
<defs>
<filter id="filter0_d" x="0.546875" y="0.341492" width="317.891" height="226.325" filterUnits="userSpaceOnUse" color-interpolation-filters="sRGB">
<feFlood flood-opacity="0" result="BackgroundImageFix"/>
<feColorMatrix in="SourceAlpha" type="matrix" values="0 0 0 0 0 0 0 0 0 0 0 0 0 0 0 0 0 0 127 0"/>
<feOffset dy="4"/>
<feGaussianBlur stdDeviation="2"/>
<feColorMatrix type="matrix" values="0 0 0 0 0 0 0 0 0 0 0 0 0 0 0 0 0 0 1 0"/>
<feBlend mode="normal" in2="BackgroundImageFix" result="effect1_dropShadow"/>
<feBlend mode="normal" in="SourceGraphic" in2="effect1_dropShadow" result="shape"/>
</filter>
<linearGradient id="paint0_linear" x1="159.5" y1="0" x2="159" y2="17" gradientUnits="userSpaceOnUse">
<stop stop-color="#BAEC79"/>
<stop offset="1" stop-color="#6EB118"/>
</linearGradient>
</defs>
</svg>
