<svg width="640" height="640" viewBox="0 0 640 640" fill="none" xmlns="http://www.w3.org/2000/svg">
<g clip-path="url(#clip0)">
<path d="M640 0H0V640H640V0Z" fill="#17C8FF"/>
<path opacity="0.1" d="M492.91 0C492.92 0.31 493.54 25.42 476.01 41.92C469.69 47.87 462.81 54.35 455.87 61.28C448.1 69.04 430.12 68.29 428.94 55.3C426.67 30.26 426.77 10.29 427.21 5.36C427.51 3.68 427.77 1.89 427.99 0C413.43 0 342.82 0 337.41 0C336.08 19.74 337.97 49.37 339.58 66.22C345.08 123.74 355.56 145.42 364.49 157.2C366.54 162.05 370.62 177.95 372.15 202.83C373.72 228.28 371.54 244.87 370.14 249.54C363.95 261.81 355.55 272.64 326.07 272.68C319.96 272.43 296.45 268.25 273.44 259.16C246.52 248.53 236.92 237.92 235.19 234.24C234.53 231.43 233.93 229.15 233.46 227.46C229.57 200.98 250.34 152.57 273.63 124.29C308.44 82.01 320.13 12.43 321.35 4.63L321.83 1.56L321.84 0C321.84 0 234.58 0 230.69 0C228.58 9.96 225.35 22.05 221.21 33.64C216.56 46.66 191.62 50 185.07 31.53C180.87 19.68 177.17 8.77 173.5 0C161.96 0 92.6402 0 77.1102 0C78.1202 4.22 78.9402 7.4 79.3802 9.09L80.7202 14.2L83.2002 18.86C83.3102 19.07 94.8302 41.06 102.16 68.64C110.09 98.44 109.75 122.74 101.23 135.32C89.9002 152.05 0.000234375 156.13 0.000234375 156.13V248C14.2502 246.25 25.4202 244.95 37.8702 244.95C63.0602 244.95 85.0602 241.55 104.81 235.95C126.98 229.67 144.62 245.66 148.28 258.01C150.32 267.7 153.26 286.39 151.28 306.97C147.81 343.14 131.03 368.25 100.05 383.65C91.3002 386.81 83.0502 390.68 75.5902 395.2C40.3402 416.56 22.8802 447.41 12.4402 465.83C11.2002 468.02 3.85023 480.11 -0.00976562 480.11C-0.00976562 497.98 -0.00976562 552.65 -0.00976562 569.66C4.55023 569.52 7.29023 569.41 7.29023 569.41L9.71023 568.7C18.6002 575.24 29.8802 584.06 41.0002 594.18C71.5602 621.99 76.8802 634.07 76.9802 639.98H173.63C173.05 605.67 151.38 574.78 113.2 538.41C109.15 534.55 90.3202 505.31 102.47 491.18C108.34 484.35 114.04 477.12 122.24 472.15C129.23 467.91 138.66 465.46 147.68 464.36C157.6 463.16 179.37 476.83 182.72 484.46C188.9 498.55 193.9 515.75 193.9 530.94C193.9 559.88 206.55 582.56 217.7 602.58C226.61 618.57 230.21 624.85 230.83 639.98H321.94C320.45 603.43 307.71 579.23 296.3 558.75C290.48 548.31 283.89 536.48 283.89 530.94C283.89 482.46 261.16 431.96 240.04 405.55C234.49 398.61 220.86 376.39 230.09 364.68C236.96 355.97 248.96 347.3 263.75 350.99C289.26 357.36 312.61 362.66 325.89 362.66C339.48 362.66 366.55 375.62 370.05 382.8C378.94 400.97 353.48 423.42 349.06 427.84C343.58 433.32 326.9 450 321.49 502.83C320.1 516.36 317.77 550.6 326.02 576.38C330.67 590.91 335.29 622.6 336.69 639.98H427.92C427.47 634.33 421.03 578.06 411.72 548.96C410.81 546.03 409.32 534.52 410.52 517.61C411.52 503.39 413.9 493.37 415.43 488.94C425.92 464.98 448.3 466.13 467.24 469.83C522.39 480.59 525.31 498.88 526.41 505.77C528.33 517.79 515.38 552.5 510.24 563.28C493.37 598.62 493.02 636.21 492.91 639.98H582.79C582.79 639.8 580.51 620.6 591.43 602.06C594.83 596.29 597.62 590.89 601.41 586.61C601.41 586.61 614.19 570.07 639.87 569.68C640.18 569.68 639.81 479.67 639.81 479.67L638.01 479.71C634.2 479.86 630.46 480.21 626.75 480.53C617.54 481.32 608.81 466.73 605.33 459.43C595.79 439.38 580.49 422.38 560.04 409.33C540.2 396.66 515.47 387.56 484.45 381.51C478.13 380.28 461.9 371.99 457.23 360.43C454.66 354.06 453.24 345.96 451.57 336.5C448.8 320.74 447.73 305.76 447.33 295.88C448.66 293.52 451.24 255.99 495.63 269.38C508.33 273.21 523.11 274.85 536.99 274.85C544.97 274.85 552.71 274.1 559.74 272.34C567.44 270.41 576.28 267.27 586.52 263.63C601.88 258.16 621.3 251.25 639.88 247.53C639.88 236.25 639.88 170.63 639.88 156.41C608.19 160.39 577.71 171.24 556.36 178.84C549.6 181.25 542.63 183.73 538.85 184.79C536.07 184.98 528.61 185.69 519.98 182.69C504.58 177.34 487.25 155.34 511.28 133.39C520.52 124.95 529.43 115.24 537.69 107.46C579.44 68.15 582.98 17.16 582.9 0" fill="white"/>
<path opacity="0.4" d="M612.21 428.99C607.19 438.35 597.05 438.39 595.78 438.36C578.28 432.48 558.29 439.61 540.37 446.02C533.14 448.6 526.32 451.04 520.13 452.46C498.2 457.49 471.15 458.76 456.61 459.44L452.9 459.62C445.44 459.99 441.15 458.94 438.54 456.1C435.35 452.62 434.53 446.1 435.96 435.59C439.1 412.59 462.89 380.07 497.27 365.47C534.42 349.69 537.28 321.55 540.31 291.75C542.24 272.72 552.4 258.57 559.07 251.16C561.76 248.17 575.63 247.01 580.84 247.01C581.15 247.01 581.46 247.01 581.76 247.01C605.97 246.75 625.55 236.18 639.98 215.58L638.34 214.43C605.77 260.93 553.74 246.1 515.82 225.47C493.57 213.36 475.02 213.13 457.08 212.9C440.48 212.69 424.8 212.49 408.02 202.42C405.47 200.89 403.16 199.26 401.01 197.55C401.01 197.46 401.02 197.36 401.01 197.27H400.66C375.42 176.88 377.34 144.39 382.03 110.03C383.75 97.4 383.11 85.86 381.67 76.42C380.41 68.22 385.26 64.12 390.45 66.23C393.35 67.41 396.48 68.31 399.83 68.93C412.66 71.3 424.7 72.47 435.58 72.47C455.12 72.47 470.95 68.7 481.06 61.34C486.5 57.38 494.53 57.05 498.16 62.87C503.06 70.72 511.76 78.14 527.16 80.6C546.71 83.72 563.84 83.6 577.61 83.49C589.59 83.4 599.94 83.33 607.95 85.39C616.49 87.59 623.11 89.82 627.95 91.45C633.22 93.23 636.71 94.41 639.15 94.41V92.41C637.03 92.41 633.49 91.21 628.58 89.56C623.71 87.92 617.05 85.67 608.44 83.45C600.17 81.32 589.71 81.4 577.59 81.49C563.9 81.59 546.86 81.71 527.47 78.62C492.51 73.05 493.77 41.65 493.86 40.06C497.84 9.71 493.95 0.5 493.78 0.12L491.95 0.93C491.99 1.02 495.76 10.21 491.87 39.85C490.8 48.03 486.76 54.71 479.87 59.73C464.57 70.86 435.52 73.5 400.18 66.96C388.88 64.87 380.25 59.46 374.52 50.87C361.41 31.19 367.7 1.05 367.77 0.75L365.82 0.33C365.55 1.6 359.28 31.58 372.86 51.98C372.94 52.1 373.02 52.21 373.1 52.32C373.72 53.71 384.33 78.24 380.04 109.76C376.71 134.19 371.94 169.21 393.05 192.75C394.84 194.74 398.65 204.93 398.08 207.98C395.66 220.88 388.47 231.55 377.19 238.65C362.23 248.07 342.35 249.54 327.73 242.31C316.82 236.91 307.89 223.7 298.45 209.71C284.47 189.01 270.02 167.61 246.79 167.31C246.57 167.31 246.36 167.31 246.15 167.31C231.75 167.31 220.96 173.66 213.11 181.61C209.51 185.25 206.82 183.4 208.27 178.05C208.77 176.21 209.28 174.32 209.81 172.39C217.16 145.56 233.29 125.21 248.89 105.53C254.42 98.56 260.13 91.35 265.33 84C284.16 57.37 264.73 34.57 255.4 23.61C254.71 22.8 254.07 22.05 253.51 21.37C245.61 11.79 238.2 0.12 238.13 0L236.44 1.07C236.51 1.19 243.99 12.96 251.99 22.64C252.56 23.33 253.2 24.08 253.9 24.91C262.91 35.48 281.65 57.48 263.72 82.85C258.55 90.16 252.86 97.35 247.35 104.3C231.63 124.13 215.37 144.64 207.91 171.87C207.38 173.8 206.87 175.68 206.37 177.53C203.88 186.7 201.66 194.85 199.2 202.02C196.69 207.32 195.42 211.36 195.14 212.32C189.28 225.04 181.27 233.7 166.57 238.6C139.85 247.51 101.3 242.99 85.4202 235.81C82.6002 234.54 79.5002 232.82 75.9202 230.84C64.0902 224.3 47.6402 215.21 24.1202 213.35C21.0502 213.11 17.5702 207.38 18.5902 202.47C19.4102 198.49 19.0402 189.79 18.5702 178.77C17.3602 150.4 15.3402 102.93 34.4402 95.64L34.3202 95.32C53.8802 93.83 76.1602 88.12 84.9002 70.89C101.29 38.58 101.48 0.91 101.48 0.53H99.4802C99.4802 0.9 99.2802 38.11 83.1102 69.98C67.1602 101.45 0.950195 92.51 0.280195 92.42L0.000195313 94.4C1.0002 94.54 10.1002 95.77 22.1202 95.77C24.7302 95.77 26.0802 99.28 24.4302 101.9C14.0002 118.48 15.5002 153.86 16.5702 178.85C17.0302 189.73 17.4002 198.32 16.6302 202.06C14.9402 210.22 12.6902 212.46 11.5002 213.07H11.4902C7.8102 213.2 3.9902 213.49 0.0101953 214L0.260195 215.98C3.4402 215.57 6.5002 215.31 9.4802 215.16C9.7202 215.24 10.0702 215.33 10.5302 215.33C10.9302 215.33 11.4002 215.26 11.9102 215.07C41.6102 214.16 61.3702 225.07 74.9502 232.59C78.5702 234.59 81.7002 236.32 84.6002 237.63C94.4102 242.06 112.72 245.51 131.66 245.51C136.41 245.51 141.19 245.29 145.89 244.82L145.84 245.53C146.08 245.55 170.52 247.66 189.46 282.64C200.46 302.96 213.08 310.3 224.21 316.77C232.82 321.78 240.25 326.1 245.09 335.55C249.25 343.67 253.49 356.16 256.15 369.6C256.15 369.6 255.6 371.19 256.69 372.45C260.34 392.82 260.16 414.79 250.46 426.84C234.9 446.18 210.36 436.39 197.28 428.97L197.27 428.96C195.82 428.14 194.5 427.34 193.36 426.62C185.25 421.48 171.55 423.19 154.21 425.35C138.21 427.34 120.07 429.6 100.57 427.47C76.8502 424.87 65.0502 413.98 55.5702 405.22C48.6802 398.86 42.7302 393.37 34.1602 392.51C22.0002 391.29 15.7602 395.6 10.7402 399.06C7.2902 401.44 4.3002 403.49 0.110195 403.49V405.49C4.9202 405.49 8.3002 403.16 11.8702 400.7C16.8702 397.26 22.5302 393.35 33.9602 394.5C41.8702 395.29 47.5902 400.57 54.2202 406.69C63.9202 415.64 75.9802 426.78 100.35 429.45C120.07 431.62 139.14 429.24 154.45 427.33C171.4 425.22 184.79 423.55 192.28 428.3C193.3 428.95 194.61 429.74 196.13 430.6V430.61C196.55 430.9 238.02 459.97 228.28 508.16C219.17 553.26 222.54 570.55 225.79 587.28C226.12 588.99 226.45 590.69 226.77 592.43C228.64 602.59 226.58 610.37 224.92 616.61C223.5 621.95 209.02 628.92 202.43 623.43C199.38 620.89 195.13 613.62 190.21 605.2C181.04 589.52 169.63 570 158.15 567.9C152.12 566.8 146.28 566.64 140.64 566.49C130.48 566.21 121.71 565.97 116.14 560.09C111.17 554.85 97.9002 545.64 86.1902 537.52C76.6402 530.9 67.6102 524.64 65.4202 522.12C59.5102 515.34 27.4902 515.26 -0.0498047 519.09L0.230195 521.07C33.1002 516.49 59.7002 518.59 63.9202 523.43C66.1802 526.02 74.2502 531.66 83.7702 538.27C84.6002 538.9 121.1 567.24 117.34 594.86C115.03 611.84 111.21 617.6 107.16 623.7C104.49 627.73 101.73 631.89 99.4802 639.42L101.39 639.99C103.55 632.75 106.11 628.89 108.81 624.81C112.8 618.79 116.93 612.57 119.31 595.13C120.29 587.9 118.74 580.72 115.84 573.98C111.37 563.61 129.98 568.19 140.58 568.48C146.15 568.63 151.9 568.79 157.78 569.86C168.36 571.79 179.51 590.87 188.47 606.2C193.48 614.78 197.81 622.19 201.14 624.95C209.73 632.11 225.35 633.49 227.8 633.67C229.48 635.04 231.25 635.95 232.72 636.69C234.96 637.82 236.23 638.51 236.23 639.7H238.23C238.23 637.22 235.99 636.1 233.62 634.9C231.15 633.66 228.08 632.12 226.12 628.68C224.51 625.87 225.49 622.19 226.84 617.1C228.55 610.66 230.68 602.64 228.73 592.04C228.41 590.3 228.08 588.58 227.74 586.87C224.52 570.34 221.19 553.24 230.22 508.53C235.18 483.95 227.2 464.24 217.84 450.57C213.04 443.56 215.81 439.02 222.52 439.72C223.98 439.87 225.45 439.95 226.92 439.95C235.84 439.95 244.83 436.94 251.98 428.06C258.85 419.52 260.71 406.23 260.71 391.99C260.71 388.49 268.51 381.99 276.93 382.49C278.14 382.56 279.4 382.57 280.72 382.49L282.55 382.38C299.07 381.39 319.63 380.16 332.79 397.32C346.52 415.23 363.35 419.49 382.33 422.88C403.14 426.59 416.62 433.42 422.69 442.99C430.77 455.74 412.83 473.26 408.21 480.17C394.86 500.19 393.83 528.63 397.04 537.63L397.55 539.06C402.08 551.67 414.11 585.16 406.24 600.62C404.38 604.28 401.58 606.61 397.7 607.74C373.5 614.8 365.9 639.12 365.82 639.37L367.73 639.95C367.8 639.71 375.11 616.41 398.26 609.66C402.64 608.38 405.92 605.65 408.02 601.53C416.28 585.3 404.04 551.22 399.44 538.39L398.93 536.96C395.83 528.28 396.89 500.76 409.88 481.28C418.11 468.93 429.46 462.31 443.6 461.58L443.57 461C446.07 461.58 449.14 461.76 452.96 461.58L456.66 461.4C471.26 460.71 498.43 459.44 520.53 454.37C526.83 452.93 533.71 450.47 540.99 447.86C561.28 440.61 584.27 432.39 602.65 443.76C625.93 458.16 635.96 480.67 630.16 505.52C627.86 515.38 623.64 522.6 618.75 529.3C614.86 533.37 612.54 537.22 612.2 537.78C607.41 543.85 602.54 550.21 598.77 558.34C589.76 577.78 581.98 594.58 544.96 606.24C511.53 616.78 493.4 628.31 492.55 639.61L494.54 639.76C494.99 633.82 502.21 621.81 545.56 608.15C583.42 596.22 591.76 578.23 600.58 559.18C604.48 550.76 609.65 544.21 614.65 537.89C616.51 535.54 618.33 533.23 620.08 530.85C624.57 526.13 631.22 521.06 639.11 521.06V519.06C637.23 519.06 635.42 519.31 633.69 519.76C630.33 520.63 628.87 516.4 630.44 511.76C631.06 509.93 631.61 508.01 632.09 505.97C637.51 482.73 629.59 461.48 610.3 446.62C608.23 445.02 606.41 438.17 609.72 435.23C611.27 433.86 612.71 432.11 613.89 429.9C620.24 418.05 631.24 405.46 639.1 405.46V403.46C629.42 403.5 617.7 418.74 612.21 428.99ZM424.45 441.96C418.17 431.83 404.14 424.76 382.75 420.94C364.18 417.63 347.73 413.48 334.44 396.13C320.63 378.12 299.48 379.39 282.49 380.41L280.67 380.52C268.89 381.2 261.62 374.96 258.52 371.47C255.88 356.94 251.35 343.32 246.9 334.63C241.79 324.66 234.12 320.2 225.24 315.04C214.34 308.7 201.98 301.51 191.24 281.68C182.72 265.95 173.22 256.7 165.13 251.26C159 247.14 161.92 242.25 167.21 240.48C186.45 234.06 194.62 221.67 201.13 202.59C207.3 189.64 221.01 169.3 246.19 169.3C246.39 169.3 246.6 169.3 246.8 169.3C268.99 169.59 283.14 190.55 296.83 210.82C306.43 225.03 315.49 238.46 326.88 244.09C333.33 247.28 340.76 248.85 348.37 248.85C358.7 248.85 369.35 245.96 378.29 240.33C388 234.22 394.8 225.59 398.3 215.22C398.74 213.92 404.87 202.93 410.92 206.3C426.44 214.95 441.48 214.68 457.08 214.88C474.78 215.11 493.07 215.34 514.89 227.21C525.98 233.25 536.67 237.91 546.88 241.19C552.11 242.87 554.48 252.7 549.57 260.34C544.46 268.29 539.63 278.86 538.34 291.53C535.37 320.72 532.57 348.3 496.51 363.61C461.47 378.49 437.22 411.75 434 435.3C432.48 446.46 428.24 448.09 424.45 441.96Z" fill="white"/>
<path opacity="0.75" d="M380.27 0C377.69 3.97 371.56 12.84 364.67 19.02C356.71 26.16 322.74 46.67 288.85 46.67C288.58 46.67 288.31 46.67 288.05 46.67C259.01 46.39 254.49 14.63 254 10.19C254.35 4.27 254.03 0.55 253.98 0.01H245.99C246.03 0.41 249.35 40.44 220.98 53.72C204.83 61.28 193.72 62.5 184.8 63.48C176.61 64.38 169.54 65.16 162.32 70.44C153.63 76.8 148.83 85.87 144.97 93.15C142.56 97.7 140.29 101.99 137.91 103.83L136.8 104.69C129.94 110.02 123.46 115.06 113.74 113.64C110.92 113.2 107.98 112.77 104.89 112.36C85.7702 109.82 72.8202 102.13 66.3902 89.5C49.9302 57.24 80.7002 0.55 81.0002 0C81.0002 0 73.4802 0.19 71.5302 0C67.3802 8.13 52.3202 39.77 53.4202 68.86H53.3802C53.3702 69.11 52.3102 94.28 38.2302 105.58L37.0002 106.57C22.2102 118.45 17.7502 122.04 0.000234375 122.04V130.04C20.5602 130.04 26.8402 125 42.0002 112.81L43.2302 111.82C47.4402 108.44 50.6702 104.18 53.1602 99.68C55.0102 96.32 62.7902 99.22 65.0502 101.86C68.3902 105.76 72.4202 109.08 77.1202 111.81C80.9302 116.03 80.8702 120.57 80.3502 130.13C80.1402 133.97 79.9002 138.33 80.0102 143.4C80.3302 159.45 74.3502 174.27 56.3202 202.14C45.6702 218.59 30.4402 223.01 20.5302 224.02C19.9202 224 19.3102 223.98 18.6802 223.98H0.000234375V231.98H9.73023C10.5002 232.08 12.4602 232.29 15.2902 232.29C16.8702 232.29 18.7202 232.22 20.7702 232.03C47.9302 233.06 59.5602 254.02 61.3502 273.67C61.7502 278.12 62.0602 282.23 62.3202 285.85C63.4002 300.61 64.1102 310.36 70.0102 319.2C70.9502 320.61 71.8502 321.82 72.6402 322.89C77.1702 329 79.4502 332.09 75.2702 361.11C74.3202 364.27 73.5902 367.43 73.1302 370.53C69.4002 382.14 62.5202 389.44 56.2002 393.93C48.3602 396.3 41.2502 400.28 34.7202 405.96C28.6902 411.2 23.1402 419.69 17.7702 427.89C11.4002 437.63 6.77023 446.18 0.0102344 449.97V460.05C8.48023 455.3 17.5702 442.8 24.4602 432.26C29.5302 424.51 34.7702 416.5 39.9602 411.99C41.5802 410.58 43.2502 409.3 44.9602 408.13C47.0602 407.53 52.6802 405.65 59.0302 401.48C68.5902 398.71 79.4902 398.65 92.2102 401.22C114.56 405.75 117.46 427.56 120.01 446.8L120.37 449.5C123.21 470.43 138.48 480.34 157.8 492.89L159.48 493.98C176.61 505.11 177.45 520.34 177.49 522.04C177.03 526.19 176.8 531.02 176.66 536.86C176.55 541.57 176.71 545.69 177.07 549.32C173.76 564.78 114.99 591.45 93.5302 558.17C88.4602 550.31 78.2202 545.72 65.1802 544.03C42.4502 541.08 30.5702 542.06 19.0902 543.02C13.3302 543.5 7.37023 544 -0.00976562 544V552C7.70023 552 13.8202 551.49 19.7502 551C31.3202 550.04 42.2602 549.13 64.1402 551.97C98.4802 556.43 97.5502 590.22 97.3302 594.06C96.7502 604.16 84.2202 618.96 79.2302 622.78C72.1902 628.16 72.0302 638.78 72.0302 639.97L80.0302 639.95C80.0302 637.8 80.7702 631.67 84.0802 629.13C88.6202 625.66 98.8002 614.44 103.22 603.21C103.77 602.37 107.48 597.3 118.4 595.22C126.46 593.68 151.8 584.22 168.87 571.35C173.06 568.19 183.84 569.94 186.54 572.46C189.24 574.98 192.19 576.57 194.91 578.05L195.08 578.14C196.24 578.77 197.87 579.45 199.93 580.32C213.7 586.11 245.95 599.67 245.95 639.95H253.95C253.95 635.02 253.49 630.46 252.71 626.2L253.91 626.02C253.89 625.88 251.86 611.94 256.36 601.16C260.01 592.41 278.05 580.47 284.88 576.49C300.13 569.1 305.38 555.09 308.87 545.81C309.51 544.12 310.11 542.52 310.67 541.23C311.87 538.51 316.59 534.68 320.76 531.3C323.69 528.92 326.66 526.51 329.17 523.99C331.58 522.8 343.26 517.53 354.51 521.31C362.04 523.84 368.05 529.99 372.36 539.59C374.67 544.74 376.69 549.15 378.44 552.98C388.75 575.49 389.37 576.84 386.74 591.59C383.41 610.23 381.06 638.77 380.97 639.96L389.02 639.99C389.04 639.7 394.51 589.96 410.61 565.37C411.22 564.43 411.72 563.05 412.46 561.49C419.66 546.33 438.77 506.05 456.38 489.91C474.56 473.25 509.49 478.65 526.29 494.23C544.21 510.85 548.58 519.43 539.13 537.44C532.42 550.23 520.59 567.48 511.08 581.33C505.48 589.48 500.65 596.53 497.59 601.55C489.16 615.37 473.49 639.02 473.13 639.96H488C488.08 639.74 496.37 618.9 504.42 605.71C507.37 600.87 512.14 593.91 517.67 585.86C527.3 571.83 539.28 554.37 546.21 541.16C557.24 520.13 549.21 517.68 566.03 521.16C567.9 521.55 569.7 521.91 571.42 522.27C590.43 526.16 599.97 528.11 610.27 535.84C623.64 545.87 632.23 552.01 640 552.01V544.01C634.5 544.01 625.06 536.93 615.07 529.44C603.33 520.64 592.57 518.44 573.03 514.44C571.31 514.09 569.53 513.72 567.66 513.34C550.96 509.89 559.95 475.01 562.69 470.33C563.58 468.81 564.49 467.25 565.41 465.76C567.51 462.37 568.87 458.91 569.7 455.58C570.81 451.12 577.31 446.98 581.11 448.62C595.68 454.89 615.49 458.99 640.01 458.99V450.99C592.07 450.99 561.15 433.88 560 418.03C559.03 404.71 561.93 394.22 565.95 379.71C567.22 375.11 568.54 370.35 569.89 364.96C574.22 347.63 573.83 327.48 573.49 309.7C573.37 303.55 573.26 297.74 573.34 292.39C573.65 272.84 588.1 248.66 603.65 241.64C619.85 234.33 639.8 232.05 640.01 232.02V223.96C639.13 224.06 617.74 226.51 600.37 234.34C599.01 234.95 597.67 235.68 596.34 236.49C580.6 240.9 565.41 239.41 554.6 232.36C545.19 226.23 539.48 216.27 537.64 202.78C533.29 170.91 548.03 153.87 550.51 151.26C558.27 146.99 564.22 141.31 567.11 138.54C569.75 136.02 573.74 131.5 577 124.9C579.13 120.57 589.06 116.91 593.66 119.89C599.21 123.47 605.72 126.18 613.1 127.95C621.11 129.87 628.55 130.3 633.64 130.3C637.66 130.3 639.78 130.07 640.01 130.05V122.12C639.89 122.13 627.75 123.28 614.75 120.12C598.09 116.07 587.1 107.03 582.06 93.25C581.81 90.97 581.44 88.62 580.92 86.17C575.53 60.58 570.14 48.5 541.11 40.15C514.32 32.45 495.16 17.86 488.27 0C487.01 0.17 477.93 0.25 472.94 0C464.71 3.54 453.61 9.22 448.5 15.9C447.67 16.99 446.12 18.25 444.83 20.11C431.75 39 414.14 33.59 411.45 31.5C400.99 23.4 391.99 5.46 389.4 0H380.27ZM529.7 203.86C531.84 219.53 538.12 233.13 550.21 239.06C562.81 245.23 574.46 259.98 568.99 272.98C566.35 279.26 565.42 286 565.32 292.25C565.23 297.74 565.35 303.62 565.47 309.84C565.79 326.41 566.14 345.09 562.58 360.97C556.2 372.66 547.38 379.43 536.36 381.07C514.41 384.32 487.57 366.9 475.82 355.15C470.33 349.66 464.4 347.13 458.17 347.64C452.05 348.14 438.26 347.13 434.42 343.06C433.08 341.64 431.66 340.18 430.16 338.66C414.38 322.73 416.12 282.55 420.87 272.96C426.42 268.34 431.89 262.67 436.96 255.22C460.6 220.47 433.93 180.18 417.99 156.1C405.33 136.97 412.56 129.25 413.47 128.39C419.28 124.57 423.35 120.51 426.21 116.27C429.12 111.95 441.73 98.97 454.14 111.04C467.93 124.44 475.65 127.5 483.04 130.63C489.43 133.33 494.94 135.66 504.88 145.2C511.26 151.32 531.48 162.73 529.26 182.76C528.58 189.02 528.64 196.05 529.7 203.86ZM378.43 460.11C378.72 469.91 378.92 476.39 366.71 494.03C354.03 512.36 328.03 500.64 326.24 499.8C322.87 497.87 318.91 496.13 314.85 494.35C308.69 491.64 302.33 488.85 298.63 485.62C294.6 482.11 292.57 474.85 289.76 464.8C286.4 452.79 282.22 437.85 272.31 420.38C266.52 410.17 259.27 404.64 250.77 403.93C245.36 403.48 246.13 394.23 251.25 388.51C256.9 382.19 261.78 376.74 263.98 371.98C265.56 368.56 267.79 362.65 269.62 355.57C270.96 350.39 278.51 344.52 282 346.24C289.84 350.09 299.6 350.42 312.12 350.84L315.21 350.94C317.07 351 318.85 351.04 320.58 351.04C347.23 351.04 357.84 342.9 371.63 314.03C377.26 302.25 385.48 296.21 394.75 290.14C400.52 286.35 409.2 294.3 409.65 302.23C410.52 317.71 414.74 334.42 424.52 344.29C441.63 361.56 446.18 369.75 443.4 390.78C441.02 408.73 413.76 419.53 403.49 423.59C402.09 424.14 400.94 424.6 400.11 424.96C391.37 428.76 378.37 439.88 378.37 454.96C378.33 456.81 378.38 458.49 378.43 460.11ZM270.46 316.47C270.43 316.37 270.39 316.27 270.36 316.17H270.35C270.02 315.24 269.68 314.32 269.28 313.42C265.72 305.46 259.62 300.11 251.14 297.5C251.14 297.5 251.14 297.5 251.13 297.5C245.61 295.8 242.19 293.58 240.67 290.72C237.85 285.38 240.75 276.08 244.42 264.3C248.01 252.77 252.47 238.43 253.94 221C254.74 211.52 265.51 199.36 271.48 199.36C292.77 199.36 306.89 190.52 320.8 176.86C334.54 163.37 356.61 154.03 379.98 144.14C387.37 141.01 402.96 144 405.91 150.75C407.23 153.75 409 157.02 411.33 160.54C426.16 182.94 450.98 220.44 430.36 250.74C420.16 265.73 408.33 272.74 396.89 279.52C384.23 287.02 372.28 294.1 364.39 310.6C350.38 339.93 341.37 343.87 315.47 342.96L312.37 342.86C287.45 342.04 278.73 341.73 270.84 317.66C270.73 317.26 270.59 316.86 270.46 316.47ZM450.74 25.49C452.38 23.68 453.8 22.13 454.84 20.77C457.62 17.15 463.4 13.54 469.35 10.53C473.77 8.3 484.64 10.97 486.52 13.77C496.75 28.93 515.12 41.01 538.9 47.85C564.09 55.09 568.09 64.06 573.09 87.83C578.46 113.32 566.82 127.76 561.57 132.78C554.38 139.66 532.49 160.6 510.44 139.45C499.44 128.9 492.7 126.05 486.18 123.29C477.73 119.71 468.99 116.02 448.27 93.62C440.56 85.29 436.24 77.56 434.25 70.47C434.3 66 433.83 62.08 432.96 58.6C433.9 44.01 444.03 32.87 450.74 25.49ZM167.03 76.89C172.29 72.57 178.04 72.26 185.66 71.42C195.17 70.37 207.01 69.07 224.36 60.95C234.91 56.01 241.76 48.29 246.2 39.97C248.18 36.25 254.76 36.26 256.09 38.14C263.66 48.85 274.56 54.54 287.97 54.67C288.27 54.67 288.56 54.67 288.86 54.67C325.48 54.67 361.11 32.97 370.01 24.98C372.51 22.74 374.88 20.23 377.05 17.71C379.99 14.3 388.15 14.98 390.67 18.98C394.96 25.8 400.45 33.1 406.55 37.83C415.56 44.81 422.15 50.42 424.88 59.48C424.74 63.34 425.14 67.4 426.23 71.64C426.19 72.71 426.12 73.82 426.02 74.97C425.69 78.59 425.56 82.09 425.43 85.48C424.75 103.04 424.26 115.72 399.36 127.02C391.81 130.45 384.21 133.66 376.87 136.76C352.78 146.95 330.84 157.46 315.21 171.14C280.51 201.49 219.75 166.8 204.11 161.78C199.15 160.19 194.46 158.68 190.17 156.96C182.9 154.03 180.77 150.29 177.84 145.11C173.48 137.44 138 100.74 167.03 76.89ZM76.6602 314.77C71.8002 307.78 71.3202 299.25 70.3002 285.28C70.0302 281.63 69.7302 277.49 69.3202 272.96C68.1702 260.36 63.1602 246.59 53.0402 236.87C49.0302 233.02 48.5002 222.4 53.2602 218.08C56.7202 214.94 60.0302 211.13 63.0302 206.5C82.0602 177.09 88.3602 161.13 88.0002 143.25C87.9002 138.48 88.1302 134.28 88.3302 130.57C88.6102 125.46 96.4802 119.15 101.19 119.91C102.05 120.05 102.92 120.18 103.8 120.29C106.87 120.7 109.78 121.12 112.55 121.55C112.56 121.55 112.57 121.55 112.58 121.55C159.39 128.85 165.47 139.54 170.86 149.04C174.03 154.62 177.3 160.39 187.17 164.36C191.72 166.19 196.55 167.74 201.65 169.38C224.92 176.85 248.98 184.58 245.97 220.31C244.58 236.86 240.25 250.75 236.78 261.9C234.47 269.33 232.14 275.88 231.76 281.7C230.99 293.48 204.05 296.12 193.67 298.77C174.51 303.66 158.79 311.1 146.15 317.07C136.98 321.41 129.07 325.15 122.39 326.75C118.33 327.73 114.43 328.31 110.67 328.88C105.55 329.66 86.5002 328.92 76.6602 314.77ZM128.3 448.44L127.94 445.76C125.32 426.05 121.74 399.05 93.7902 393.39C91.5702 392.94 89.4102 392.59 87.2802 392.28L87.5402 391.8C81.0702 388.38 79.7502 380.84 80.8902 372.53C81.8102 369.59 82.5502 366.42 83.0702 363.01C84.7602 357.56 87.0502 352.31 89.2202 348.16C93.7502 339.51 100.96 338.43 111.88 336.79C115.63 336.23 119.88 335.59 124.28 334.53C131.76 332.73 140.03 328.83 149.59 324.3C162.55 318.17 177.25 311.22 195.66 306.52C226.71 298.6 248.57 305.07 248.79 305.13C255.06 307.06 259.38 310.83 261.99 316.67C262.35 317.47 262.66 318.3 262.94 319.15C263.02 319.39 263.1 319.62 263.17 319.86C267.96 335.59 261.12 359.06 256.71 368.62C255.01 372.29 250.5 377.33 245.28 383.17C233.87 395.92 218.25 413.39 218.01 433.58C217.92 440.75 218.46 446.64 218.88 451.37C220.15 465.4 220.62 470.65 204.81 483.53C197.37 489.59 149 495.48 128.3 448.44ZM303.34 538.03C302.69 539.52 302.05 541.22 301.37 543.02C298.14 551.62 293.73 563.39 281.27 569.37L281 569.51C278.29 571.08 242.25 600.72 203.05 572.96C201.47 571.84 199.73 571.56 198.91 571.12L198.74 571.03C191.53 567.12 184.07 563.08 184.67 537.07C184.81 531.02 185.01 526.24 185.49 522.25H185.51C185.51 522.22 185.51 522.17 185.51 522.11C187.19 508.22 192.25 504.09 209.87 489.75C228.98 474.19 228.18 465.34 226.85 450.67C226.42 445.88 225.93 440.46 226.01 433.7C226.05 430.52 226.56 427.39 227.43 424.34C229.71 421.76 239.84 411.04 250.13 411.93C255.83 412.41 260.96 416.59 265.36 424.35C274.79 440.97 278.83 455.39 282.07 466.98C285.14 477.94 287.29 486.92 293.39 491.67C314 507.72 305.31 533.53 303.34 538.03ZM558.6 461.54C557.63 463.11 556.68 464.72 555.77 466.28C548.52 478.68 542.78 488.48 522.58 481.61C501.52 469.03 469.55 466.99 450.96 484.03C432.2 501.22 398.75 574.47 385.7 549.67C383.75 545.96 382.2 541.35 379.64 536.34C369.74 516.98 370.44 502.68 373.28 498.59C386.99 478.78 386.74 470.44 386.42 459.88C386.37 458.32 386.32 456.7 386.32 454.99C386.32 443.84 396.7 435.17 403.25 432.33C404.03 431.99 405.1 431.57 406.39 431.06C418.93 426.09 450.74 414.65 451.29 391.86C452.24 352.25 504.78 389.51 530.68 389.51C532.97 389.51 535.27 389.42 537.53 389.01C552.93 386.25 551.39 410.2 552 418.62C552.43 424.59 555.67 430.68 561.5 436.25C562.37 439.21 565.12 451 558.6 461.54Z" fill="white"/>
</g>
<defs>
<clipPath id="clip0">
<rect width="640" height="640" fill="white"/>
</clipPath>
</defs>
</svg>
