<svg width="1024" height="1024" viewBox="0 0 1024 1024" fill="none" xmlns="http://www.w3.org/2000/svg">
<g filter="url(#filter0_ddd)">
<path d="M1018 507C1018 786.434 791.473 1013 511.975 1013C380.308 1013 260.436 962.725 170.405 880.324C161.814 872.444 191.095 822.678 200.754 806.665C178.437 817.849 129.634 838.64 122.161 829.642C49.6176 742.056 6 629.611 6 507C6 424.497 25.7245 346.619 60.8016 277.79C68.3254 263.048 324.795 432.122 364.498 447.016C337.199 418.498 105.944 204.539 117.383 190.305C210.108 74.8616 352.45 1 512.025 1C704.136 1 871.286 108.056 956.945 265.793C963.656 278.146 876.675 345.298 850.647 363.903C882.877 355.414 986.431 330.047 991.057 343.569C1008.54 394.81 1018 449.812 1018 507Z" fill="#2B4B04"/>
<path d="M127.153 828.722C125.392 828.494 124.706 828.008 124.472 827.729C52.3571 740.66 9 628.887 9 507C9 425.271 28.4689 348.118 63.1037 279.882C63.4043 279.889 63.8472 279.931 64.4623 280.046C66.4492 280.419 69.377 281.389 73.2329 282.989C80.8905 286.167 91.5669 291.557 104.41 298.553C130.066 312.527 164.018 332.712 199.032 353.858C211.823 361.582 224.757 369.436 237.473 377.158C259.536 390.555 280.945 403.555 299.819 414.795C314.699 423.658 328.034 431.444 338.9 437.486C349.707 443.494 358.242 447.873 363.444 449.825L366.665 444.942C360.256 438.246 342.615 421.336 319.535 399.214C293.371 374.134 260.218 342.356 228.518 311.166C198.626 281.755 169.988 252.832 149.548 230.391C139.317 219.157 131.206 209.619 126.024 202.489C123.419 198.905 121.649 196.056 120.703 193.978C120.232 192.942 120.038 192.253 119.986 191.855C212.173 77.2786 353.549 4 512.025 4C702.984 4 869.138 110.406 954.297 267.203C954.31 267.254 954.351 267.491 954.222 268.043C954.043 268.811 953.599 269.883 952.783 271.278C951.156 274.059 948.375 277.584 944.614 281.693C937.123 289.878 926.177 299.917 914.123 310.223C890.038 330.817 861.856 352.203 848.902 361.462L851.411 366.804C867.496 362.567 901.363 354.124 931.756 348.431C946.971 345.58 961.202 343.441 971.866 342.843C977.222 342.543 981.502 342.643 984.5 343.168C986.003 343.431 987.015 343.773 987.638 344.112C988.064 344.343 988.194 344.507 988.222 344.552C1005.6 395.479 1015 450.149 1015 507C1015 784.777 789.816 1010 511.975 1010C381.087 1010 261.93 960.026 172.43 878.111C172.274 877.966 171.848 877.369 171.846 875.549C171.844 873.798 172.242 871.447 173.053 868.552C174.668 862.786 177.733 855.516 181.437 847.85C188.826 832.555 198.5 816.211 203.323 808.215L208.677 799.34L199.41 803.983C188.333 809.534 170.68 817.469 154.916 822.885C147.017 825.599 139.726 827.632 134.029 828.451C131.171 828.862 128.866 828.943 127.153 828.722ZM63.4737 279.154C63.4731 279.155 63.4725 279.156 63.4719 279.158C63.4725 279.156 63.4731 279.155 63.4737 279.154ZM119.972 191.646C119.973 191.646 119.973 191.652 119.971 191.662C119.972 191.651 119.972 191.646 119.972 191.646ZM988.218 344.54C988.219 344.542 988.219 344.543 988.22 344.545C988.219 344.543 988.219 344.542 988.218 344.54Z" stroke="url(#paint0_linear)" stroke-width="6"/>
</g>
<path d="M638.548 256.719L643.174 257.583C644.089 252.754 664.424 138.378 598.133 94L595.541 97.9142C659.188 140.564 638.751 255.601 638.548 256.719Z" fill="url(#paint1_radial)" fill-opacity="0.5"/>
<path d="M644.907 267.189C645.72 266.935 728.583 244.06 801.94 288.895L804.381 284.879C729.193 238.926 644.449 262.411 643.585 262.665L644.907 267.189Z" fill="url(#paint2_radial)" fill-opacity="0.5"/>
<path d="M894.612 364.079L899.289 364.485C892.934 441.753 817.239 485.012 794.21 496.348C797.413 497.009 800.565 497.721 803.666 498.483L802.547 503.058C794.159 501.025 785.212 499.347 775.858 497.873C790.855 514.089 833.202 569.498 834.727 679.35L829.999 679.401C828.27 555.163 773.876 502.042 768.131 496.755C740.374 492.891 709.618 491.163 679.523 490.706C694.368 504.583 736.663 551.859 739.205 642.089L734.477 642.241C731.631 541.946 679.015 496.094 672.254 490.604C643.938 490.35 616.537 491.163 593.254 492.281C601.439 498.382 624.315 518.003 645.666 561.009C658.63 557.044 671.44 550.995 682.675 542.099L685.573 545.759C673.982 554.96 660.917 561.212 647.801 565.38C652.072 574.226 656.189 584.036 660.155 594.864L655.732 596.491C651.767 585.562 647.547 575.7 643.226 566.804C624.976 571.989 606.878 573.412 592.695 573.412C583.595 573.412 576.224 572.853 571.343 572.345C595.847 600.405 623.959 635.633 644.7 670.454C644.751 670.454 644.751 670.505 644.802 670.607C646.022 672.589 647.191 674.622 648.31 676.605C649.021 677.672 649.886 678.842 650.902 680.112V680.062L655.427 678.791C655.478 678.943 656.24 681.943 657.104 687.077C673.118 703.14 707.788 725.354 777.841 727.286L777.688 732.014C711.703 730.184 676.422 711.121 658.172 694.956C658.172 695.108 658.223 695.261 658.223 695.413C660.053 699.175 661.781 702.937 663.357 706.648L659.189 708.427C660.561 743.858 652.732 804.96 594.576 857.319L591.424 853.812C655.376 796.217 657.003 727.845 653.698 696.837C651.055 691.448 648.208 686.009 645.107 680.519C642.464 676.656 641.091 673.86 640.583 672.691C632.906 659.881 624.264 646.969 615.164 634.413C612.978 652.408 602.76 705.123 555.635 754.279L552.229 751.026C604.997 695.973 610.487 636.65 610.996 628.77C595.491 607.878 578.969 588.103 564.074 571.226C564.938 587.9 562.803 635.277 518.423 681.18L515.068 677.927C568.09 623.128 558.99 566.448 558.889 565.889L559.244 565.838C534.64 538.337 515.576 519.884 515.118 519.427L518.372 516.021C518.88 516.478 540.079 537.066 566.717 567.16C571.903 567.871 606.268 572.091 641.091 562.534C615.673 512.107 588.119 494.518 587.764 494.315L588.78 492.688C552.28 494.518 526.963 497.06 526.302 497.111L525.845 492.434C526.506 492.332 552.026 489.791 588.882 487.961L588.119 486.181C588.577 485.927 629.805 467.576 638.142 411.659C598.236 407.338 548.67 414.912 540.537 416.234C520.304 452.936 513.39 470.88 513.288 471.236L508.866 469.61C509.018 469.203 517.508 447.039 543.333 401.696C541.858 397.121 532.759 372.212 503.985 338.712C479.431 366.112 455.131 403.729 451.573 409.321C469.162 449.124 481.871 468.695 482.126 469.101L478.211 471.694C477.906 471.287 464.892 451.157 446.845 410.236C438.174 405.457 384.679 370.478 332 404.085L328.418 400.855C320.593 406.001 323.442 420.492 331.425 438L338.5 442C361.397 485.782 395.224 522.322 402.058 526.848C446.947 516.021 462.757 508.904 463.062 508.752L465.045 513.022C463.875 513.581 447.811 520.85 402.668 531.678C399.364 534.474 379.182 553.587 372.573 599.846C409.43 604.878 446.184 600.405 453.403 599.439C474.602 553.079 484.617 523.087 484.769 522.578L489.243 524.053C489.09 524.51 479.736 552.52 460.063 596.135C460.571 599.998 466.315 631.668 525.235 688.653L521.981 692.008C474.195 645.85 460.673 616.062 456.86 603.201C445.574 627.703 431.289 656.576 413.7 688.042C414.717 694.803 424.579 751.534 481.617 795.454L478.77 799.165C428.442 760.43 413.903 711.782 410.141 694.397C403.431 706.292 396.263 718.492 388.587 730.946L384.571 728.506C396.161 709.698 406.583 691.448 416.038 674.114C413.598 674.165 410.192 674.216 406.024 674.216C376.081 674.216 306.486 671.522 270.951 647.985L273.544 644.071C314.62 671.267 406.379 669.692 418.631 669.336C431.391 645.647 442.168 623.738 451.115 604.421C443.846 605.336 428.341 606.963 409.531 606.963C397.89 606.963 384.977 606.251 372.014 604.472C370.591 616.519 370.082 630.245 370.946 645.901L366.269 646.155C365.354 630.092 365.914 616.113 367.337 603.76C354.12 601.625 341.004 598.219 329.21 592.932L331.142 588.662C342.427 593.695 355.085 596.999 367.947 599.032C373.031 562.839 386.146 542.759 394.077 533.609C373.895 538.286 348.528 543.522 317.06 549.114C302.47 559.026 260.174 594.457 261.191 671.267L256.463 671.318C255.599 602.997 288.134 566.346 306.893 550.893C281.424 555.315 252.243 559.89 218.742 564.618C214.574 566.296 129.728 601.066 129.728 676.961H125C125 615.757 177.565 580.427 203.339 566.753C201.051 567.058 198.865 567.363 196.527 567.668L195.917 562.991C201.305 562.28 206.491 561.568 211.625 560.856C194.188 548.656 140.048 503.617 130.643 410.998L135.32 410.541C145.69 512.818 211.524 555.57 218.641 559.89C255.955 554.655 287.981 549.469 315.382 544.589C315.789 544.284 316.246 544.03 316.602 543.776C303.08 533.609 247.261 487.554 229.265 408.406L233.942 407.389C253.861 494.945 320.836 541.077 322.228 542.036L322.245 542.048L323.821 543.115C353.255 537.778 377.047 532.745 396.06 528.272C382.922 518.856 347.178 472.552 331.425 438C323.442 420.492 320.593 406.001 328.418 400.855C377.146 368.815 425.602 394.512 443.998 403.424C435.407 383.446 425.901 358.944 416.14 329.918L415.886 330.122C415.327 329.512 359.152 268.663 272.68 307.145L270.748 302.824C343.698 270.341 395.958 306.28 413.191 321.124C404.143 293.47 395.043 261.903 386.401 226.319L384.825 227.691C384.164 226.98 320.974 156.473 249.447 173.299L248.38 168.724C313.349 153.525 371.251 207.104 385.181 221.235C382.13 208.476 379.131 195.209 376.233 181.382L380.86 180.416C383.961 195.361 387.265 209.696 390.569 223.472C400.737 203.901 437.034 141.833 501.647 114.23L503.477 118.551C432.458 148.899 396.263 221.998 392.247 230.589C401.143 266.732 410.548 298.554 419.8 326.258C429.866 308.009 465.604 248.635 522.388 214.22L524.828 218.236C463.621 255.294 427.273 321.937 421.834 332.358C431.493 360.825 440.897 384.666 449.336 404.085C456.25 393.359 478.313 360.063 500.884 335.002C495.496 328.952 489.599 322.7 482.888 316.193L486.142 312.838C492.75 319.294 498.698 325.496 504.036 331.494C511.102 323.92 518.118 317.311 524.676 312.584L527.421 316.396C521.066 320.971 514.153 327.529 507.188 335.052C532.25 364.079 542.723 386.598 546.383 396.155C556.703 378.21 569.666 356.911 585.628 332.155C584.917 322.954 575.461 222.201 522.795 204.003L524.32 199.58C574.546 216.965 587.103 300.994 589.746 325.801C601.998 306.992 615.978 286.252 631.89 263.58L635.753 266.274C616.893 293.165 600.829 317.21 587.052 338.662C608.607 335.052 688.623 324.479 735.087 356.25L732.444 360.113C683.895 326.919 593.864 342.169 583.646 344.05C566.717 370.585 553.551 392.85 543.434 410.947C558.024 408.711 601.998 402.865 638.753 406.881C639.718 398.188 639.871 388.682 639.057 378.261L643.734 377.905C644.599 388.631 644.395 398.493 643.379 407.44C657.003 409.27 669.407 412.625 678.557 418.217L676.117 422.232C667.577 416.997 655.833 413.845 642.769 412.117C635.906 458.579 607.132 480.386 595.186 487.554C620.299 486.385 650.038 485.571 680.489 486.08L680.499 486.074C682.518 485.006 766.279 440.675 753.846 378.515L758.472 377.6C769.504 432.552 710.381 473.727 689.64 486.283C723.243 487.096 757.201 489.587 786.432 494.925C794.464 491.417 887.647 448.615 894.612 364.079Z" fill="url(#paint3_radial)" fill-opacity="0.5"/>
<path d="M378.318 740.148L379.182 736.589L375.573 737.301C374.403 737.555 256.107 761.04 170.905 732.421L169.431 736.894C247.567 763.124 352.696 746.248 373.031 742.588C369.371 761.905 355.492 856.76 420.309 919.286L423.562 915.931C353.459 848.169 378.064 741.215 378.318 740.148Z" fill="url(#paint4_radial)" fill-opacity="0.5"/>
<defs>
<filter id="filter0_ddd" x="6" y="1" width="1012" height="1022" filterUnits="userSpaceOnUse" color-interpolation-filters="sRGB">
<feFlood flood-opacity="0" result="BackgroundImageFix"/>
<feColorMatrix in="SourceAlpha" type="matrix" values="0 0 0 0 0 0 0 0 0 0 0 0 0 0 0 0 0 0 127 0"/>
<feOffset dy="10"/>
<feColorMatrix type="matrix" values="0 0 0 0 0.133333 0 0 0 0 0.431373 0 0 0 0 0.505882 0 0 0 1 0"/>
<feBlend mode="normal" in2="BackgroundImageFix" result="effect1_dropShadow"/>
<feColorMatrix in="SourceAlpha" type="matrix" values="0 0 0 0 0 0 0 0 0 0 0 0 0 0 0 0 0 0 127 0"/>
<feOffset dy="8"/>
<feColorMatrix type="matrix" values="0 0 0 0 0.0745098 0 0 0 0 0.219608 0 0 0 0 0.219608 0 0 0 1 0"/>
<feBlend mode="normal" in2="effect1_dropShadow" result="effect2_dropShadow"/>
<feColorMatrix in="SourceAlpha" type="matrix" values="0 0 0 0 0 0 0 0 0 0 0 0 0 0 0 0 0 0 127 0"/>
<feOffset dy="6"/>
<feColorMatrix type="matrix" values="0 0 0 0 0.027451 0 0 0 0 0.054902 0 0 0 0 0 0 0 0 1 0"/>
<feBlend mode="normal" in2="effect2_dropShadow" result="effect3_dropShadow"/>
<feBlend mode="normal" in="SourceGraphic" in2="effect3_dropShadow" result="shape"/>
</filter>
<linearGradient id="paint0_linear" x1="512" y1="1" x2="512" y2="1013" gradientUnits="userSpaceOnUse">
<stop stop-color="#9BD84C"/>
<stop offset="0.171875" stop-color="#588A23"/>
<stop offset="1" stop-color="#112000"/>
</linearGradient>
<radialGradient id="paint1_radial" cx="0" cy="0" r="1" gradientUnits="userSpaceOnUse" gradientTransform="translate(621.178 175.792) rotate(90) scale(81.7916 25.6376)">
<stop stop-color="#6EB118"/>
<stop offset="1" stop-color="#447308"/>
</radialGradient>
<radialGradient id="paint2_radial" cx="0" cy="0" r="1" gradientUnits="userSpaceOnUse" gradientTransform="translate(723.983 272.668) rotate(90) scale(16.2272 80.3978)">
<stop stop-color="#6EB118"/>
<stop offset="1" stop-color="#447308"/>
</radialGradient>
<radialGradient id="paint3_radial" cx="0" cy="0" r="1" gradientUnits="userSpaceOnUse" gradientTransform="translate(512.144 485.775) rotate(90) scale(371.544 387.144)">
<stop stop-color="#6EB118"/>
<stop offset="1" stop-color="#447308"/>
</radialGradient>
<radialGradient id="paint4_radial" cx="0" cy="0" r="1" gradientUnits="userSpaceOnUse" gradientTransform="translate(296.497 825.853) rotate(90) scale(93.4326 127.066)">
<stop stop-color="#6EB118"/>
<stop offset="1" stop-color="#447308"/>
</radialGradient>
</defs>
</svg>
