<svg width="160" height="163" viewBox="0 0 160 163" fill="none" xmlns="http://www.w3.org/2000/svg">
<g filter="url(#filter0_ddd)">
<path d="M159.063 79.2188C159.063 122.88 123.668 158.281 79.996 158.281C59.4232 158.281 40.6931 150.426 26.6258 137.551C25.2834 136.319 29.8586 128.543 31.3678 126.041C27.8808 127.789 20.2553 131.037 19.0877 129.632C7.75275 115.946 0.9375 98.3768 0.9375 79.2188C0.9375 66.3276 4.01946 54.1593 9.50025 43.4047C10.6758 41.1013 50.7492 67.519 56.9528 69.8463C52.6874 65.3904 16.5538 31.9592 18.341 29.7352C32.8294 11.6971 55.0703 0.15625 80.004 0.15625C110.021 0.15625 136.138 16.8838 149.523 41.5302C150.571 43.4603 136.98 53.9527 132.914 56.8598C137.95 55.5334 154.13 51.5699 154.853 53.6827C157.585 61.689 159.063 70.2831 159.063 79.2188Z" fill="#2B4B04"/>
<path d="M26.9633 137.182C26.9481 137.167 26.8826 137.085 26.8822 136.805C26.8819 136.535 26.9432 136.171 27.0696 135.72C27.3213 134.821 27.7992 133.687 28.3777 132.49C29.5316 130.102 31.0425 127.549 31.796 126.3L32.6882 124.821L31.1438 125.594C29.4139 126.461 26.6569 127.701 24.1955 128.546C22.9619 128.97 21.8249 129.287 20.9376 129.415C20.4925 129.479 20.1354 129.491 19.8717 129.457C19.5989 129.422 19.5012 129.347 19.4723 129.312C8.20916 115.713 1.4375 98.2558 1.4375 79.2188C1.4375 66.4608 4.47491 54.4168 9.87876 43.7635C9.92267 43.7657 9.98415 43.7725 10.0665 43.7879C10.3736 43.8456 10.8287 43.9961 11.4307 44.2459C12.6256 44.7418 14.2926 45.5834 16.2991 46.6763C20.3072 48.8594 25.6116 52.013 31.0826 55.317C33.0811 56.524 35.102 57.7511 37.0891 58.9577C40.5364 61.051 43.8816 63.0823 46.8307 64.8386C49.1559 66.2234 51.2397 67.4403 52.938 68.3845C54.6263 69.3231 55.9619 70.0085 56.7772 70.3144L57.314 69.5005C56.3123 68.4541 53.5549 65.811 49.9479 62.3535C45.8596 58.4347 40.6798 53.4696 35.7278 48.5973C31.0574 44.002 26.5831 39.4834 23.39 35.9775C21.7915 34.2225 20.5251 32.7332 19.7165 31.6205C19.3099 31.0611 19.0348 30.618 18.8884 30.2961C18.8205 30.1469 18.7907 30.0461 18.7808 29.9862C33.1794 12.0969 55.2568 0.65625 80.004 0.65625C109.828 0.65625 135.778 17.2736 149.079 41.7612C149.081 41.7716 149.083 41.8053 149.067 41.8746C149.04 41.9904 148.972 42.1548 148.845 42.3714C148.593 42.803 148.16 43.3519 147.573 43.9934C146.404 45.2709 144.695 46.8385 142.811 48.4486C139.049 51.6657 134.646 55.0067 132.623 56.453L133.041 57.3433C135.554 56.6814 140.845 55.3623 145.593 54.473C147.97 54.0277 150.192 53.6938 151.856 53.6005C152.692 53.5536 153.358 53.5694 153.823 53.6507C154.056 53.6915 154.21 53.7442 154.304 53.7949C154.355 53.8229 154.375 53.8431 154.382 53.8507C157.095 61.8036 158.562 70.341 158.562 79.2188C158.562 122.604 123.392 157.781 79.996 157.781C59.553 157.781 40.9422 149.976 26.9633 137.182ZM18.7768 29.9462C18.7769 29.9462 18.7769 29.9471 18.7768 29.9487C18.7768 29.947 18.7768 29.9462 18.7768 29.9462ZM18.7308 30.0483C18.7308 30.0483 18.7308 30.0484 18.7308 30.0484L18.7308 30.0483Z" stroke="url(#paint0_linear)"/>
</g>
<path d="M99.7732 40.1124L100.496 40.2474C100.639 39.4928 103.816 21.6216 93.4583 14.6875L93.0532 15.2991C102.998 21.9631 99.805 39.9376 99.7732 40.1124Z" fill="url(#paint1_radial)" fill-opacity="0.5"/>
<path d="M100.767 41.7483C100.894 41.7085 113.841 38.1343 125.303 45.1398L125.684 44.5123C113.936 37.3321 100.695 41.0016 100.56 41.0414L100.767 41.7483Z" fill="url(#paint2_radial)" fill-opacity="0.5"/>
<path d="M139.783 56.8869L140.514 56.9505C139.521 69.0235 127.694 75.7828 124.095 77.5541C124.596 77.6573 125.088 77.7685 125.573 77.8877L125.398 78.6025C124.087 78.2848 122.689 78.0227 121.228 77.7924C123.571 80.3261 130.188 88.9837 130.426 106.148L129.687 106.156C129.417 86.7439 120.918 78.4437 120.02 77.6176C115.684 77.014 110.878 76.7439 106.176 76.6724C108.495 78.8408 115.104 86.2276 115.501 100.326L114.762 100.35C114.317 84.6787 106.096 77.5144 105.04 76.6565C100.615 76.6168 96.3339 76.7439 92.6959 76.9187C93.9748 77.8718 97.5492 80.9377 100.885 87.6573C102.911 87.0378 104.913 86.0926 106.668 84.7026L107.121 85.2745C105.31 86.7121 103.268 87.6891 101.219 88.3404C101.886 89.7224 102.53 91.2554 103.149 92.9472L102.458 93.2014C101.839 91.4937 101.179 89.9528 100.504 88.5628C97.6525 89.3729 94.8247 89.5953 92.6086 89.5953C91.1867 89.5953 90.035 89.508 89.2724 89.4285C93.101 93.813 97.4936 99.3173 100.734 104.758C100.742 104.758 100.742 104.766 100.75 104.782C100.941 105.092 101.124 105.409 101.298 105.719C101.41 105.886 101.545 106.069 101.703 106.267V106.259L102.41 106.061C102.418 106.085 102.538 106.553 102.673 107.355C105.175 109.865 110.592 113.336 121.538 113.638L121.514 114.377C111.204 114.091 105.691 111.112 102.839 108.587C102.839 108.61 102.847 108.634 102.847 108.658C103.133 109.246 103.403 109.834 103.65 110.413L102.998 110.691C103.213 116.228 101.989 125.775 92.9025 133.956L92.41 133.408C102.402 124.409 102.657 113.726 102.14 108.88C101.727 108.038 101.283 107.189 100.798 106.331C100.385 105.727 100.17 105.29 100.091 105.108C98.8916 103.106 97.5413 101.089 96.1194 99.1267C95.7779 101.938 94.1813 110.175 86.818 117.856L86.2858 117.347C94.5308 108.745 95.3887 99.4762 95.4681 98.245C93.0454 94.9805 90.4639 91.8908 88.1365 89.2538C88.2716 91.859 87.938 99.2617 81.0036 106.434L80.4793 105.926C88.764 97.3634 87.3422 88.5072 87.3263 88.4198L87.3819 88.4119C83.5374 84.1148 80.5587 81.2316 80.4873 81.1601L80.9956 80.6279C81.0751 80.6994 84.3874 83.9163 88.5496 88.6184C89.3598 88.7296 94.7294 89.3888 100.17 87.8956C96.1989 80.0163 91.8937 77.2681 91.8381 77.2364L91.9969 76.9822C86.2937 77.2681 82.338 77.6653 82.2347 77.6732L82.1633 76.9425C82.2665 76.9266 86.254 76.5295 92.0128 76.2435L91.8937 75.9655C91.9652 75.9258 98.4071 73.0585 99.7098 64.3214C93.4744 63.6463 85.7298 64.8297 84.4588 65.0362C81.2975 70.7709 80.2172 73.5747 80.2013 73.6303L79.5102 73.3762C79.5341 73.3126 80.8606 69.8496 84.8957 62.7646C84.6654 62.0498 83.2435 58.1578 78.7477 52.9235C74.9111 57.2047 71.1143 63.0823 70.5583 63.956C73.3066 70.1752 75.2924 73.2332 75.3321 73.2967L74.7205 73.7018C74.6728 73.6383 72.6394 70.4929 69.8196 64.099C68.4647 63.3523 60.1061 57.8869 51.875 63.1379L51.3153 62.6333C50.0926 63.4373 50.5379 65.7015 51.7851 68.4372L52.8906 69.0622C56.4683 75.9031 61.7537 81.6125 62.8216 82.3197C69.8354 80.6279 72.3058 79.5159 72.3534 79.4921L72.6632 80.1593C72.4805 80.2467 69.9705 81.3825 62.9169 83.0743C62.4006 83.5112 59.2472 86.4977 58.2146 93.7256C63.9734 94.5119 69.7163 93.813 70.8442 93.662C74.1565 86.4182 75.7213 81.732 75.7452 81.6526L76.4442 81.8829C76.4203 81.9544 74.9588 86.3309 71.8848 93.1458C71.9642 93.7494 72.8618 98.6978 82.0679 107.602L81.5596 108.126C74.093 100.914 71.9801 96.2593 71.3844 94.2498C69.621 98.0782 67.3889 102.59 64.6406 107.506C64.7995 108.563 66.3404 117.427 75.2527 124.289L74.8079 124.869C66.9441 118.817 64.6724 111.216 64.0846 108.499C63.0361 110.358 61.9161 112.264 60.7167 114.21L60.0892 113.829C61.9002 110.89 63.5286 108.038 65.006 105.33C64.6247 105.338 64.0925 105.346 63.4412 105.346C58.7626 105.346 47.8884 104.925 42.3361 101.247L42.7412 100.636C49.1593 104.885 63.4968 104.639 65.4111 104.583C67.4048 100.882 69.0888 97.4587 70.4868 94.4404C69.3509 94.5834 66.9282 94.8376 63.9893 94.8376C62.1703 94.8376 60.1527 94.7264 58.1272 94.4484C57.9048 96.3308 57.8253 98.4754 57.9604 100.922L57.2296 100.961C57.0866 98.4515 57.174 96.2673 57.3964 94.3372C55.3312 94.0036 53.2818 93.4714 51.439 92.6454L51.7409 91.9782C53.5043 92.7645 55.4821 93.2808 57.4917 93.5985C58.286 87.9432 60.3354 84.8058 61.5745 83.3761C58.4211 84.1069 54.4574 84.925 49.5406 85.7987C47.2609 87.3475 40.6522 92.8837 40.811 104.885L40.0723 104.893C39.9373 94.218 45.0209 88.4913 47.952 86.0767C43.9724 86.7677 39.413 87.4826 34.1785 88.2212C33.5271 88.4834 20.27 93.9162 20.27 105.775H19.5312C19.5312 96.2117 27.7445 90.6914 31.7717 88.5548C31.4143 88.6025 31.0727 88.6502 30.7073 88.6978L30.612 87.9671C31.454 87.8559 32.2642 87.7447 33.0664 87.6335C30.3419 85.7272 21.8824 78.6899 20.4129 64.2181L21.1437 64.1466C22.7641 80.1275 33.0506 86.8074 34.1626 87.4826C39.9929 86.6645 44.9971 85.8543 49.2785 85.0918C49.342 85.0441 49.4135 85.0044 49.4691 84.9647C47.3562 83.3761 38.6346 76.18 35.8227 63.8131L36.5535 63.6542C39.6658 77.3348 50.1306 84.5429 50.3481 84.6928L50.3508 84.6946L50.597 84.8614C55.1961 84.0274 58.9136 83.2411 61.8843 82.5421C59.8316 81.071 54.2466 73.836 51.7851 68.4372C50.5379 65.7015 50.0926 63.4373 51.3153 62.6333C58.9291 57.6271 66.5004 61.6422 69.3747 63.0347C68.0323 59.9131 66.547 56.0847 65.0219 51.5494L64.9822 51.5812C64.8948 51.4858 56.1176 41.9783 42.6062 47.991L42.3044 47.3159C53.7028 42.2404 61.8684 47.856 64.5612 50.1753C63.1473 45.8544 61.7254 40.9219 60.3751 35.362L60.1289 35.5764C60.0256 35.4652 50.1522 24.4486 38.9762 27.0777L38.8094 26.3628C48.9608 23.9879 58.008 32.3596 60.1845 34.5677C59.7079 32.5741 59.2392 30.501 58.7865 28.3406L59.5093 28.1897C59.9938 30.5248 60.5101 32.7647 61.0265 34.9172C62.6151 31.8592 68.2865 22.1611 78.3823 17.8481L78.6683 18.5233C67.5716 23.2651 61.9161 34.6869 61.2886 36.0292C62.6786 41.6765 64.1481 46.6487 65.5938 50.9775C67.1665 48.126 72.7506 38.8489 81.6231 33.4716L82.0044 34.0991C72.4408 39.8894 66.7614 50.3024 65.9115 51.9306C67.4207 56.3786 68.8902 60.1038 70.2088 63.1379C71.289 61.462 74.7364 56.2595 78.2632 52.3437C77.4212 51.3985 76.4998 50.4215 75.4513 49.4048L75.9596 48.8806C76.9922 49.8893 77.9216 50.8584 78.7556 51.7956C79.8597 50.6121 80.9559 49.5796 81.9806 48.8409L82.4095 49.4366C81.4166 50.1515 80.3363 51.1761 79.2481 52.3516C83.1641 56.8869 84.8004 60.4056 85.3723 61.8988C86.9848 59.095 89.0103 55.767 91.5044 51.8989C91.3932 50.4612 89.9158 34.7186 81.6867 31.8751L81.925 31.1841C89.7728 33.9005 91.7348 47.0299 92.1479 50.906C94.0622 47.9672 96.2465 44.7265 98.7327 41.1841L99.3364 41.605C96.3895 45.8068 93.8795 49.5637 91.7269 52.9156C95.0948 52.3516 107.597 50.6995 114.857 55.6638L114.444 56.2674C106.859 51.0808 92.7912 53.4636 91.1947 53.7575C88.5496 57.9036 86.4923 61.3826 84.9116 64.2102C87.1913 63.8607 94.0622 62.9473 99.8051 63.5748C99.956 62.2166 99.9798 60.7313 99.8527 59.103L100.584 59.0474C100.719 60.7233 100.687 62.2642 100.528 63.6621C102.657 63.9481 104.595 64.4723 106.025 65.346L105.643 65.9735C104.309 65.1554 102.474 64.6629 100.433 64.3929C99.3603 71.6526 94.8644 75.06 92.9978 76.18C96.9217 75.9973 101.568 75.8702 106.326 75.9496L106.328 75.9488C106.643 75.7818 119.731 68.8552 117.788 59.1427L118.511 58.9997C120.235 67.5859 110.997 74.0195 107.756 75.9814C113.007 76.1085 118.313 76.4977 122.88 77.3317C124.135 76.7836 138.695 70.0958 139.783 56.8869Z" fill="url(#paint3_radial)" fill-opacity="0.5"/>
<path d="M59.1122 115.648L59.2472 115.092L58.6833 115.203C58.5006 115.243 40.0168 118.913 26.704 114.441L26.4736 115.14C38.6823 119.238 55.1088 116.601 58.2861 116.029C57.7142 119.048 55.5457 133.869 65.6733 143.639L66.1816 143.114C55.228 132.527 59.0725 115.815 59.1122 115.648Z" fill="url(#paint4_radial)" fill-opacity="0.5"/>
<defs>
<filter id="filter0_ddd" x="0.9375" y="0.15625" width="158.125" height="162.125" filterUnits="userSpaceOnUse" color-interpolation-filters="sRGB">
<feFlood flood-opacity="0" result="BackgroundImageFix"/>
<feColorMatrix in="SourceAlpha" type="matrix" values="0 0 0 0 0 0 0 0 0 0 0 0 0 0 0 0 0 0 127 0"/>
<feOffset dy="4"/>
<feColorMatrix type="matrix" values="0 0 0 0 0.133333 0 0 0 0 0.431373 0 0 0 0 0.505882 0 0 0 1 0"/>
<feBlend mode="normal" in2="BackgroundImageFix" result="effect1_dropShadow"/>
<feColorMatrix in="SourceAlpha" type="matrix" values="0 0 0 0 0 0 0 0 0 0 0 0 0 0 0 0 0 0 127 0"/>
<feOffset dy="3"/>
<feColorMatrix type="matrix" values="0 0 0 0 0.0745098 0 0 0 0 0.219608 0 0 0 0 0.219608 0 0 0 1 0"/>
<feBlend mode="normal" in2="effect1_dropShadow" result="effect2_dropShadow"/>
<feColorMatrix in="SourceAlpha" type="matrix" values="0 0 0 0 0 0 0 0 0 0 0 0 0 0 0 0 0 0 127 0"/>
<feOffset dy="2"/>
<feColorMatrix type="matrix" values="0 0 0 0 0.027451 0 0 0 0 0.054902 0 0 0 0 0 0 0 0 1 0"/>
<feBlend mode="normal" in2="effect2_dropShadow" result="effect3_dropShadow"/>
<feBlend mode="normal" in="SourceGraphic" in2="effect3_dropShadow" result="shape"/>
</filter>
<linearGradient id="paint0_linear" x1="80" y1="0.15625" x2="80" y2="158.281" gradientUnits="userSpaceOnUse">
<stop stop-color="#9BD84C"/>
<stop offset="0.171875" stop-color="#588A23"/>
<stop offset="1" stop-color="#112000"/>
</linearGradient>
<radialGradient id="paint1_radial" cx="0" cy="0" r="1" gradientUnits="userSpaceOnUse" gradientTransform="translate(97.0591 27.4674) rotate(90) scale(12.7799 4.00588)">
<stop stop-color="#6EB118"/>
<stop offset="1" stop-color="#447308"/>
</radialGradient>
<radialGradient id="paint2_radial" cx="0" cy="0" r="1" gradientUnits="userSpaceOnUse" gradientTransform="translate(113.122 42.6043) rotate(90) scale(2.53549 12.5622)">
<stop stop-color="#6EB118"/>
<stop offset="1" stop-color="#447308"/>
</radialGradient>
<radialGradient id="paint3_radial" cx="0" cy="0" r="1" gradientUnits="userSpaceOnUse" gradientTransform="translate(80.0226 75.902) rotate(90) scale(58.0538 60.4913)">
<stop stop-color="#6EB118"/>
<stop offset="1" stop-color="#447308"/>
</radialGradient>
<radialGradient id="paint4_radial" cx="0" cy="0" r="1" gradientUnits="userSpaceOnUse" gradientTransform="translate(46.3276 129.04) rotate(90) scale(14.5989 19.854)">
<stop stop-color="#6EB118"/>
<stop offset="1" stop-color="#447308"/>
</radialGradient>
</defs>
</svg>
