<svg xmlns="http://www.w3.org/2000/svg" xmlns:xlink="http://www.w3.org/1999/xlink"
	 viewBox="0 0 38 32">
<style type="text/css">
	.st0{fill:#F2F2F2;stroke:#EAEAEA;stroke-width:1.0286;stroke-miterlimit:10;}
	.st1{fill:#FFFFFF;}
	.st2{fill:#D1D1D1;}
</style>
<path d="M35.99,11.14c0-4.72-3.85-8.55-8.6-8.55c-4.11,0-7.55,2.87-8.4,6.71c-0.85-3.83-4.28-6.71-8.4-6.71
	c-4.75,0-8.6,3.83-8.6,8.55c0,2.18,0.82,4.17,2.17,5.68c-0.01,0.11,0.03,0.21,0.11,0.29l14.44,14.35c0.15,0.15,0.4,0.15,0.55,0
	l14.44-14.35c0.08-0.08,0.12-0.19,0.11-0.29C35.17,15.31,35.99,13.32,35.99,11.14z"/>
<path class="st0" d="M36.16,9.56c0-4.72-3.85-8.55-8.6-8.55c-4.11,0-7.55,2.87-8.4,6.71c-0.85-3.83-4.28-6.71-8.4-6.71
	c-4.75,0-8.6,3.83-8.6,8.55c0,2.18,0.82,4.17,2.17,5.68c-0.01,0.11,0.03,0.21,0.11,0.29l14.44,14.35c0.15,0.15,0.4,0.15,0.55,0
	l14.44-14.35c0.08-0.08,0.12-0.19,0.11-0.29C35.34,13.72,36.16,11.74,36.16,9.56z"/>
<path class="st1" d="M10.5,3.16c-3.58,0-6.48,2.88-6.48,6.44c0,1.64,0.62,3.14,1.64,4.27c0,0.08,0.02,0.16,0.08,0.22L16.62,24.9
	C2.17,10.42,8.33,5.27,10.5,3.16z"/>
<path class="st2" d="M27.94,3.16c3.58,0,6.48,2.88,6.48,6.44c0,1.64-0.62,3.14-1.64,4.27c0,0.08-0.02,0.16-0.08,0.22L21.82,24.9
	C36.26,10.42,30.11,5.27,27.94,3.16z"/>
</svg>
